<svg xmlns="http://www.w3.org/2000/svg" width="382.5" height="147" viewBox="-167.253 20 382.5 147"><path fill="#76C3BD" d="M177.21 138.664h4.54s-15.938 23.88-45.46 24.15c-29.51.28-67.34-21.47-59.93-74.09h59.93v9.9h10.892v10.01h10.01v10.01h10.01v10.01h10.01v10.01z"/><path fill="#69B1A9" d="M181.42 31.184c0-1.43-1.83-2.6-4.09-2.6-2.25 0-4.09 1.17-4.09 2.6 0 1.43 1.83 2.59 4.09 2.59s4.09-1.16 4.09-2.59zm-7.938-8c10.27 0 12.91 7.88 12.91 7.88l11.88 6.43-10.32 6.48s2.21 25.92 4.73 51.91c2.52 26-8.64 39.38-8.64 39.38h-3.75v-10H170.28v-10.01h-10v-10.01h-10.01v-10.01h-10.892v-8.34c15.46-13.33 20.78-51.86 21.78-55.84s2.053-7.87 12.324-7.87z"/><g><g fill="#76C3BD"><path d="M-96.508 116.723v19.8c-2.592 1.872-5.358 3.27-8.298 4.194-2.94.923-6.162 1.386-9.666 1.386-4.152 0-7.896-.642-11.232-1.926-3.336-1.284-6.186-3.084-8.55-5.4-2.364-2.315-4.182-5.094-5.454-8.334-1.272-3.24-1.908-6.804-1.908-10.692 0-3.935.617-7.522 1.854-10.763s2.994-6.018 5.274-8.334c2.28-2.315 5.052-4.11 8.315-5.382 3.264-1.27 6.912-1.907 10.944-1.907 2.04 0 3.937.15 5.69.45 1.75.3 3.37.732 4.86 1.296 1.487.563 2.867 1.247 4.14 2.05 1.27.806 2.46 1.71 3.563 2.72l-1.98 3.167c-.312.48-.714.787-1.206.92-.492.13-1.04.017-1.638-.344-.577-.336-1.237-.743-1.98-1.224-.744-.48-1.65-.942-2.718-1.387s-2.328-.822-3.78-1.135c-1.453-.312-3.174-.468-5.166-.468-2.904 0-5.532.475-7.884 1.422-2.353.948-4.356 2.305-6.013 4.068-1.657 1.764-2.93 3.9-3.816 6.408-.89 2.508-1.332 5.322-1.332 8.44 0 3.24.462 6.14 1.386 8.695s2.244 4.73 3.96 6.516c1.716 1.788 3.798 3.15 6.246 4.085 2.448.937 5.196 1.404 8.244 1.404 2.4 0 4.53-.27 6.39-.81s3.678-1.29 5.454-2.25v-11.34h-8.028c-.457 0-.823-.133-1.098-.397-.276-.264-.414-.588-.414-.972v-3.96h15.84zM-43.876 141.526h-5.4c-.625 0-1.13-.156-1.512-.468-.384-.312-.672-.708-.864-1.188l-4.824-12.456h-23.148l-4.824 12.456c-.145.433-.42.816-.828 1.152-.408.336-.913.504-1.512.504h-5.4l20.628-51.588h7.056l20.628 51.588zm-14.544-19.152l-8.1-20.987c-.24-.624-.492-1.35-.756-2.18-.265-.827-.517-1.71-.756-2.645-.504 1.944-1.02 3.563-1.548 4.86l-8.1 20.95h19.26zM-30.09 141.526h-6.983V89.938h6.984v51.588zM24.883 89.938v51.588H21.39c-.552 0-1.013-.096-1.385-.288-.373-.19-.738-.516-1.1-.972l-29.843-38.88c.048.6.084 1.188.108 1.764.023.576.036 1.116.036 1.62v36.756h-6.12V89.938h3.6c.312 0 .576.018.792.054s.408.097.576.18c.167.085.336.205.504.36.167.156.348.354.54.594l29.844 38.845c-.048-.623-.09-1.228-.126-1.817-.036-.588-.054-1.146-.054-1.674V89.94h6.12zM64.446 98.002c-.216.36-.45.63-.702.81s-.558.27-.918.27c-.41 0-.888-.202-1.44-.61-.553-.408-1.242-.858-2.07-1.35-.828-.492-1.824-.942-2.988-1.35-1.165-.41-2.574-.613-4.23-.613-1.56 0-2.934.21-4.122.63-1.188.42-2.184.99-2.988 1.71-.804.72-1.41 1.565-1.818 2.537-.41.973-.612 2.022-.612 3.15 0 1.44.354 2.634 1.062 3.582.708.947 1.644 1.757 2.808 2.43s2.484 1.254 3.96 1.745c1.476.492 2.988 1.002 4.536 1.53s3.06 1.122 4.536 1.782c1.476.66 2.795 1.493 3.96 2.502 1.164 1.007 2.1 2.243 2.808 3.707s1.063 3.264 1.063 5.4c0 2.255-.384 4.373-1.15 6.353-.77 1.98-1.89 3.702-3.367 5.166-1.476 1.464-3.288 2.616-5.436 3.456-2.148.84-4.59 1.26-7.326 1.26-3.36 0-6.407-.606-9.143-1.818s-5.076-2.85-7.02-4.914l2.016-3.312c.192-.264.426-.486.702-.666.276-.18.582-.27.918-.27.312 0 .666.125 1.063.377.396.25.846.57 1.35.953.504.385 1.08.805 1.73 1.26.646.457 1.385.877 2.213 1.26s1.77.703 2.825.955 2.244.378 3.564.378c1.655 0 3.13-.23 4.427-.685 1.296-.454 2.394-1.097 3.294-1.925s1.59-1.818 2.07-2.97c.48-1.152.72-2.436.72-3.853 0-1.56-.353-2.838-1.06-3.834-.71-.995-1.64-1.83-2.79-2.502-1.153-.67-2.473-1.242-3.96-1.71-1.49-.468-3-.947-4.537-1.44-1.536-.49-3.048-1.062-4.536-1.71-1.488-.647-2.808-1.487-3.96-2.52-1.152-1.03-2.082-2.322-2.79-3.87s-1.062-3.46-1.062-5.742c0-1.823.354-3.587 1.062-5.292.708-1.703 1.74-3.216 3.096-4.535 1.356-1.32 3.024-2.376 5.004-3.168s4.253-1.19 6.822-1.19c2.88 0 5.5.457 7.865 1.37 2.364.91 4.446 2.23 6.246 3.96L64.447 98z"/></g></g><g><g fill="#6BB1A9"><path d="M-137.313 28.608c5.71 0 10.05 1.224 13.014 3.672 2.965 2.448 4.447 6.12 4.447 11.016 0 2.137-.414 4.11-1.242 5.922-.828 1.812-2.01 3.372-3.546 4.68-1.537 1.31-3.38 2.328-5.527 3.06-2.148.732-4.53 1.098-7.146 1.098h-10.116v21.168h-1.98V28.608h12.097zm0 27.83c2.376 0 4.518-.337 6.426-1.01 1.908-.67 3.528-1.595 4.86-2.77 1.332-1.177 2.358-2.57 3.078-4.177.72-1.606 1.08-3.334 1.08-5.183 0-4.27-1.283-7.524-3.85-9.756-2.57-2.23-6.433-3.347-11.593-3.347h-10.116v26.244h10.117zM-64.628 53.917c0 3.96-.576 7.53-1.728 10.71-1.152 3.18-2.772 5.892-4.86 8.136s-4.584 3.966-7.488 5.166-6.12 1.8-9.648 1.8c-3.48 0-6.672-.6-9.576-1.8-2.904-1.2-5.4-2.923-7.488-5.167s-3.708-4.956-4.86-8.136c-1.152-3.18-1.728-6.75-1.728-10.71 0-3.936.576-7.5 1.728-10.692 1.152-3.19 2.772-5.91 4.86-8.154s4.584-3.977 7.488-5.2c2.903-1.225 6.096-1.837 9.576-1.837 3.528 0 6.744.606 9.648 1.818 2.904 1.213 5.4 2.94 7.488 5.185 2.088 2.244 3.708 4.962 4.86 8.154 1.15 3.19 1.728 6.767 1.728 10.727zm-2.088 0c0-3.768-.522-7.146-1.566-10.134-1.044-2.988-2.52-5.526-4.428-7.614-1.908-2.09-4.188-3.685-6.84-4.79-2.652-1.103-5.586-1.655-8.802-1.655-3.168 0-6.078.552-8.73 1.656-2.652 1.105-4.932 2.7-6.84 4.79-1.908 2.087-3.396 4.625-4.464 7.613-1.068 2.988-1.602 6.366-1.602 10.134 0 3.768.534 7.146 1.602 10.134 1.067 2.99 2.556 5.515 4.464 7.58 1.908 2.063 4.188 3.648 6.84 4.75 2.652 1.105 5.562 1.657 8.73 1.657 3.216 0 6.15-.553 8.802-1.656 2.65-1.103 4.932-2.687 6.84-4.75 1.908-2.064 3.384-4.59 4.428-7.58 1.044-2.987 1.566-6.365 1.566-10.133zM-33.958 78.072c2.616 0 4.95-.46 7.002-1.386 2.052-.923 3.792-2.19 5.22-3.798s2.52-3.498 3.276-5.67c.756-2.172 1.134-4.506 1.134-7.002V28.608h2.016v31.608c0 2.736-.432 5.298-1.296 7.686-.864 2.388-2.106 4.47-3.726 6.246-1.62 1.776-3.576 3.174-5.868 4.194-2.292 1.02-4.878 1.53-7.758 1.53s-5.472-.51-7.776-1.53c-2.304-1.02-4.26-2.418-5.868-4.194-1.608-1.776-2.844-3.857-3.708-6.246-.864-2.388-1.296-4.95-1.296-7.686V28.608h1.98v31.536c0 2.497.378 4.836 1.134 7.02.756 2.184 1.848 4.086 3.276 5.706 1.428 1.62 3.174 2.893 5.238 3.816 2.064.925 4.404 1.386 7.02 1.386zM27.17 77.496v1.73H.098V28.607h1.98v48.888H27.17zM68.46 30.336H49.92v48.888h-1.98V30.336H29.294v-1.728H68.46v1.728zM111.12 79.225h-1.62c-.264 0-.498-.036-.7-.107-.205-.072-.403-.24-.595-.504L90.35 56.76c-.193-.263-.392-.48-.595-.647-.204-.168-.432-.306-.684-.414s-.55-.187-.9-.235c-.347-.048-.773-.072-1.277-.072h-7.38v23.832h-1.98V28.608h12.204c5.496 0 9.672 1.068 12.528 3.204 2.856 2.137 4.284 5.376 4.284 9.72 0 1.992-.374 3.798-1.117 5.418-.745 1.62-1.79 3.024-3.132 4.212-1.343 1.188-2.975 2.136-4.895 2.844-1.92.708-4.044 1.134-6.372 1.278.432.24.852.6 1.26 1.08l18.828 22.86zM79.514 53.88h9.648c2.377 0 4.52-.282 6.427-.846 1.908-.563 3.528-1.38 4.86-2.448 1.332-1.067 2.352-2.358 3.06-3.87.708-1.512 1.062-3.216 1.062-5.112 0-3.912-1.273-6.792-3.817-8.64-2.544-1.848-6.216-2.772-11.016-2.772H79.513V53.88zM134.376 57.95v21.275h-2.016V57.95l-18.792-29.34h1.692c.216 0 .384.04.504.125.12.084.24.223.36.414l16.02 25.127c.24.41.468.805.684 1.188.216.384.396.768.54 1.152.168-.408.354-.798.558-1.17.204-.372.426-.762.666-1.17l16.02-25.128c.192-.36.468-.54.828-.54h1.728l-18.792 29.34z"/></g></g></svg>